<mxfile host="app.diagrams.net" modified="2023-10-10T16:26:05.345Z" agent="Mozilla/5.0 (Windows NT 10.0; Win64; x64) AppleWebKit/537.36 (KHTML, like Gecko) Chrome/116.0.0.0 Safari/537.36" etag="JJLpxtn3ri0sGuRxV75D" version="22.0.4" type="github">
  <diagram name="Page-1" id="RJbHu5sxq5I47JQGmV-o">
    <mxGraphModel dx="794" dy="432" grid="1" gridSize="10" guides="1" tooltips="1" connect="1" arrows="1" fold="1" page="1" pageScale="1" pageWidth="850" pageHeight="1100" math="0" shadow="0">
      <root>
        <mxCell id="0" />
        <mxCell id="1" parent="0" />
        <mxCell id="B1Z8W7b9JruNJQS_tEDy-1" value="" style="shape=umlLifeline;perimeter=lifelinePerimeter;whiteSpace=wrap;html=1;container=1;dropTarget=0;collapsible=0;recursiveResize=0;outlineConnect=0;portConstraint=eastwest;newEdgeStyle={&quot;curved&quot;:0,&quot;rounded&quot;:0};participant=umlActor;" vertex="1" parent="1">
          <mxGeometry x="80" y="70" width="20" height="300" as="geometry" />
        </mxCell>
        <mxCell id="B1Z8W7b9JruNJQS_tEDy-2" value="Identity" style="shape=umlLifeline;perimeter=lifelinePerimeter;whiteSpace=wrap;html=1;container=1;dropTarget=0;collapsible=0;recursiveResize=0;outlineConnect=0;portConstraint=eastwest;newEdgeStyle={&quot;curved&quot;:0,&quot;rounded&quot;:0};" vertex="1" parent="1">
          <mxGeometry x="220" y="80" width="100" height="300" as="geometry" />
        </mxCell>
        <mxCell id="B1Z8W7b9JruNJQS_tEDy-6" value="" style="html=1;points=[[0,0,0,0,5],[0,1,0,0,-5],[1,0,0,0,5],[1,1,0,0,-5]];perimeter=orthogonalPerimeter;outlineConnect=0;targetShapes=umlLifeline;portConstraint=eastwest;newEdgeStyle={&quot;curved&quot;:0,&quot;rounded&quot;:0};" vertex="1" parent="B1Z8W7b9JruNJQS_tEDy-2">
          <mxGeometry x="45" y="97" width="10" height="80" as="geometry" />
        </mxCell>
        <mxCell id="B1Z8W7b9JruNJQS_tEDy-3" value="iSprint" style="shape=umlLifeline;perimeter=lifelinePerimeter;whiteSpace=wrap;html=1;container=1;dropTarget=0;collapsible=0;recursiveResize=0;outlineConnect=0;portConstraint=eastwest;newEdgeStyle={&quot;curved&quot;:0,&quot;rounded&quot;:0};" vertex="1" parent="1">
          <mxGeometry x="400" y="80" width="100" height="300" as="geometry" />
        </mxCell>
        <mxCell id="B1Z8W7b9JruNJQS_tEDy-4" value="Entity" style="shape=umlLifeline;perimeter=lifelinePerimeter;whiteSpace=wrap;html=1;container=1;dropTarget=0;collapsible=0;recursiveResize=0;outlineConnect=0;portConstraint=eastwest;newEdgeStyle={&quot;curved&quot;:0,&quot;rounded&quot;:0};" vertex="1" parent="1">
          <mxGeometry x="600" y="80" width="100" height="300" as="geometry" />
        </mxCell>
        <mxCell id="B1Z8W7b9JruNJQS_tEDy-5" value="RDS" style="shape=umlLifeline;perimeter=lifelinePerimeter;whiteSpace=wrap;html=1;container=1;dropTarget=0;collapsible=0;recursiveResize=0;outlineConnect=0;portConstraint=eastwest;newEdgeStyle={&quot;curved&quot;:0,&quot;rounded&quot;:0};" vertex="1" parent="1">
          <mxGeometry x="760" y="80" width="100" height="300" as="geometry" />
        </mxCell>
        <mxCell id="B1Z8W7b9JruNJQS_tEDy-7" value="dispatch" style="html=1;verticalAlign=bottom;endArrow=block;curved=0;rounded=0;entryX=0;entryY=0;entryDx=0;entryDy=5;" edge="1" target="B1Z8W7b9JruNJQS_tEDy-6" parent="1" source="B1Z8W7b9JruNJQS_tEDy-1">
          <mxGeometry relative="1" as="geometry">
            <mxPoint x="210" y="195" as="sourcePoint" />
          </mxGeometry>
        </mxCell>
        <mxCell id="B1Z8W7b9JruNJQS_tEDy-8" value="return" style="html=1;verticalAlign=bottom;endArrow=open;dashed=1;endSize=8;curved=0;rounded=0;exitX=0;exitY=1;exitDx=0;exitDy=-5;" edge="1" source="B1Z8W7b9JruNJQS_tEDy-6" parent="1" target="B1Z8W7b9JruNJQS_tEDy-1">
          <mxGeometry relative="1" as="geometry">
            <mxPoint x="210" y="265" as="targetPoint" />
          </mxGeometry>
        </mxCell>
      </root>
    </mxGraphModel>
  </diagram>
</mxfile>
